<?xml version="1.0" encoding="UTF-8"?><svg id="Layer_1" xmlns="http://www.w3.org/2000/svg" viewBox="0 0 354.38 940.64"><defs><style>.cls-1{fill:  #fdfaf6; stroke-width:0px; opacity: 1;mix-blend-mode: difference;}</style></defs><path class="cls-1" d="M285.22,475.66v121.69c-12.33,2.17-24.65,4.35-37.48,6.61,9.5-28.93,18.86-57.43,28.3-86.18-26.94-4.33-53.64-8.63-80.81-13,3.45,24.44,6.88,48.72,10.33,73.19-11.16,2.5-22.08,4.95-33.44,7.5,4.54-26.89,9.01-53.4,13.58-80.47-31.25,4.27-62.13,8.48-93.31,12.74,10.92,29.75,21.73,59.22,32.68,89.07-14.07-2.13-27.82-4.22-41.74-6.33v-124.89c4.82.62,9.56,1.21,14.3,1.86,11.67,1.59,23.34,3.21,35.02,4.81,12.83,1.75,25.67,3.48,38.51,5.23,5.43.74,10.85,1.63,16.29,2.22,5.11.55,10.06-.98,15.05-1.7,13.97-1.99,27.92-4.15,41.87-6.27,12.63-1.92,25.25-3.87,37.88-5.79.9-.14,1.81-.18,2.97-.29Z"/><path class="cls-1" d="M205.56,434.02c.64-4.78,1.24-9.45,1.88-14.12,1.58-11.42,3.2-22.84,4.79-34.26,1.93-13.9,3.84-27.79,5.77-41.69.71-5.1,1.87-10.18,2.03-15.3.13-4-.92-8.05-1.53-12.07-2.4-15.84-4.83-31.67-7.27-47.5-1.74-11.31-3.51-22.61-5.28-33.91-.15-.97-.34-1.94-.1-3.04.74-.03,1.48-.1,2.21-.1,18.49,0,36.98-.07,55.46.04,14.64.09,29.04,2.06,42.9,6.91,10.7,3.75,20.36,9.23,27,18.78,12.39,17.83,8.4,43.07-8.77,56.4-3.1,2.41-6.42,4.46-9.92,6.23-3.49,1.77-7.22,2.93-11.34,4.28,3.12.63,5.85,1.09,8.53,1.75,9.49,2.32,18.36,6,25.81,12.46,11.85,10.28,16.83,23.56,16.64,39-.13,10.51-2.46,20.43-8.25,29.34-6.9,10.63-16.86,17.27-28.61,21.45-10.12,3.6-20.64,5.32-31.33,5.4-26.31.2-52.63.1-78.95.11-.48,0-.97-.1-1.69-.17ZM249.2,421.11c6.73,0,13.13.13,19.53-.03,8.43-.22,16.72-1.49,24.72-4.24,8.35-2.87,15.77-7.19,21.15-14.33,7.62-10.11,9.4-21.56,7.17-33.8-2.16-11.82-8.39-20.76-18.88-26.74-9.12-5.2-19.11-7.22-29.42-7.49-11.73-.31-23.47-.13-35.2-.15-.48,0-.96.09-1.76.18,4.24,28.92,8.46,57.71,12.69,86.62ZM236.76,321.85c7.74,0,15.39.21,23.03-.05,10.51-.36,20.91-1.63,30.67-5.91,14.17-6.21,23.06-16.3,23.38-32.5.28-14.09-5.66-24.63-18.09-31.43-8.75-4.78-18.31-6.42-28.1-6.84-6.21-.27-12.45-.05-18.78-.05-4.05,25.65-8.06,51.11-12.11,76.78Z"/><path class="cls-1" d="M0,434.15c4.87-11.65,9.56-22.9,14.27-34.15,18.75-44.77,37.5-89.54,56.29-134.3.67-1.59.65-2.83-.24-4.38-5.47-9.58-10.81-19.23-16.35-29.13h54.87c1.06,6.95,2.13,13.91,3.18,20.87,3.13,20.7,6.26,41.4,9.38,62.1.74,4.93,1.47,9.86,2.17,14.79.27,1.9.76,3.7,1.66,5.43,16.41,31.9,32.78,63.83,49.16,95.75.45.87.84,1.76,1.36,2.86h-48.84c-2.85-16.95-5.71-33.96-8.55-50.87-.9-.62-1.75-.38-2.56-.38-24.4-.01-48.8.01-73.2-.06-1.92,0-2.69.65-3.38,2.34-6.32,15.59-12.76,31.13-19.07,46.72-.73,1.79-1.54,2.53-3.58,2.47-5.4-.17-10.82-.06-16.58-.06ZM81.57,282.83c-12.07,29.29-23.88,57.93-35.78,86.8h70.73c-1.4-7.74-2.99-15.36-4.09-23.05-.76-5.3-2.78-9.98-5.23-14.64-7.87-14.91-15.6-29.9-23.38-44.86-.64-1.23-1.3-2.46-2.24-4.26Z"/><path class="cls-1" d="M205.38,201.86h-45.02c.89-6.56,1.74-13.03,2.64-19.49,1.59-11.42,3.22-22.84,4.8-34.26,1.92-13.81,3.39-27.71,5.85-41.42,1.61-9.02.45-17.64-.96-26.41-3.18-19.76-6.25-39.54-9.37-59.31-.62-3.92-1.26-7.83-1.94-12.06-20.62,10.44-40.91,20.71-61.88,31.34,2.59-13.78,5.05-26.93,7.55-40.24h151.66c2.43,13.13,4.88,26.37,7.45,40.25-20.92-10.59-41.2-20.86-61.89-31.34-.68,4.27-1.32,8.24-1.95,12.21-3.45,22.07-6.68,44.18-10.47,66.2-1.28,7.43-.29,14.52.71,21.73,1.93,13.9,3.83,27.79,5.76,41.69,1.76,12.65,3.55,25.3,5.31,37.95.6,4.33,1.16,8.67,1.75,13.17Z"/><path class="cls-1" d="M326.66,704.66c-4.17-3.85-7.83-7.22-11.49-10.6-13.76-12.71-27.6-25.33-41.21-38.19-2.6-2.46-5.04-3.41-8.54-2.96-16.48,2.13-29.17,9.72-36.66,24.94-6.01,12.19-2.59,25.65,8.38,33.71,8.2,6.02,17.41,10.04,26.78,13.76,12.98,5.16,26.22,9.71,38.55,16.38,10.58,5.72,20.09,12.71,27.04,22.76,7.34,10.62,9.9,22.51,9.77,35.19-.1,9.98-1.96,19.49-7.2,28.13-5.06,8.34-12.46,14.01-21.24,17.86-15.06,6.6-31.04,8.16-47.29,8.63-20.79.6-39-6.26-55.72-17.99-2.31-1.62-5.5-2.8-6.67-5.03-1.17-2.23-.36-5.52-.36-8.34-.01-10.89,0-21.78,0-32.66.95-.23,1.27.5,1.72.9,19.35,17.07,38.75,34.08,57.97,51.3,2.85,2.55,5.57,3.63,9.31,3.23,10.8-1.16,20.65-4.6,28.8-11.9,7.04-6.31,12.06-13.93,13.29-23.6,1.17-9.12-1.63-16.91-8.02-23.4-5.45-5.54-12.17-9.21-19.11-12.52-12.4-5.91-25.42-10.33-37.93-15.98-12.13-5.48-23.78-11.8-32.76-21.88-13.33-14.98-17.52-32.44-12.11-51.69,3.33-11.86,11.61-20.41,21.69-27.12,14.23-9.48,30.12-13.34,47.07-13.22,10.45.07,20.75,1.25,30.58,5.1,8.83,3.46,16.58,8.81,24.37,14.07.68.46,1.02.95,1.02,1.81-.02,12.87-.02,25.75-.02,39.34Z"/><path class="cls-1" d="M84.53,838.93c28.95-10.95,57.54-21.76,86.42-32.68-2.13,14.05-4.23,27.86-6.34,41.79H40.55c1.07-7.82,2.11-15.53,3.18-23.24,1.59-11.42,3.2-22.84,4.78-34.26,1.92-13.81,3.54-27.68,5.84-41.43,1.17-6.96-.09-13.54-1.1-20.24-2.38-15.84-4.82-31.66-7.26-47.49-1.76-11.39-3.56-22.77-5.33-34.15-.05-.32-.04-.66-.07-1.1h44.98c-.59,4.02-1.14,7.92-1.75,11.81-2.26,14.67-4.55,29.34-6.81,44.01-1.92,12.47-3.76,24.95-5.76,37.41-.66,4.08.43,7.94.96,11.86,2.85,20.99,5.85,41.96,8.8,62.93,1.15,8.14,2.3,16.28,3.5,24.78Z"/><path class="cls-1" d="M173.89,902.17h34.96v38.48h-34.96v-38.48Z"/></svg>