<svg xmlns="http://www.w3.org/2000/svg" id="Layer_1" data-name="Layer 1" version="1.1" viewBox="0 0 605.9 727.5">
  <defs>
    <style>
      .cls-1 {
        fill: #fff;
        opacity: 0.8;
        stroke-width: 0px;
      }
    </style>
  </defs>
  <path class="cls-1" d="M360.6,599.9h-118.6c2.3-17.3,4.6-34.3,6.9-51.4,4.2-30.1,8.5-60.2,12.7-90.3,5.1-36.4,8.9-73,15.4-109.2,4.3-23.8,1.2-46.5-2.5-69.6-8.4-52.1-16.5-104.2-24.7-156.3-1.6-10.3-3.3-20.6-5.1-31.8-54.3,27.5-107.8,54.6-163.1,82.6,6.8-36.3,13.3-71,19.9-106.1h399.7c6.4,34.6,12.9,69.5,19.6,106.1-55.1-27.9-108.6-55-163.1-82.6-1.8,11.3-3.5,21.7-5.1,32.2-9.1,58.2-17.6,116.4-27.6,174.5-3.4,19.6-.8,38.3,1.9,57.3,5.1,36.6,10.1,73.2,15.2,109.9,4.6,33.3,9.4,66.7,14,100,1.6,11.4,3,22.9,4.6,34.7h0Z"/>
</svg>